<svg width="1024" height="1024" xmlns="http://www.w3.org/2000/svg" p-id="22675" version="1.1" class="icon" t="1755584344482">

 <g>
  <title>background</title>
  <rect fill="none" id="canvas_background" height="716" width="1278" y="-1" x="-1"/>
 </g>
 <g>
  <title>Layer 1</title>
  <path id="svg_1" p-id="22676" fill="#aad4ff" d="m332.79692,686.08313m-332.79692,0a332.79692,332.79692 0 1 0 665.59384,0a332.79692,332.79692 0 1 0 -665.59384,0z"/>
  <path id="svg_2" p-id="22677" fill="#434260" d="m883.19183,1024l-639.99408,0a141.0547,141.0547 0 0 1 -140.7987,-140.7987l0,-742.39313a141.0547,141.0547 0 0 1 140.7987,-140.7987l516.34722,0a88.31918,88.31918 0 0 1 63.48742,25.59976l189.69424,189.69425a38.39964,38.39964 0 0 1 11.2639,27.90374l0,639.99408a141.0547,141.0547 0 0 1 -140.7987,140.7987zm-639.99408,-947.19124a63.99941,63.99941 0 0 0 -63.99941,63.99941l0,742.39313a63.99941,63.99941 0 0 0 63.99941,63.99941l639.99408,0a63.99941,63.99941 0 0 0 63.99941,-63.99941l0,-624.12222l-179.19834,-179.19835a13.05588,13.05588 0 0 0 -8.44793,-3.07197l-516.34722,0z"/>
  <text transform="matrix(11.526751122988767,0,0,12.024908355475254,-5730.819278356308,-5752.958716976912) " xml:space="preserve" text-anchor="start" font-family="Helvetica, Arial, sans-serif" font-size="24" id="svg_5" y="529.438508" x="513.871939" stroke-width="0" fill="#434260">M3U8</text>
 </g>
</svg>